<svg version="1.1" id="圖層_3" xmlns="http://www.w3.org/2000/svg" x="0" y="0" viewBox="0 0 141.5 141.5" style="enable-background:new 0 0 141.5 141.5" xml:space="preserve">
  <style>
    .st3{fill:#9e9e9f}
  </style>
  <linearGradient id="SVGID_1_" gradientUnits="userSpaceOnUse" x1="50.379" y1="91.129" x2="93.223" y2="48.285">
    <stop offset="0" style="stop-color:#155fff"/>
    <stop offset="1" style="stop-color:#8c2f7d"/>
  </linearGradient>
  <path d="M57.4 65.8h-5.3v-.9c0-1.2-.3-2.1-.8-2.8-.5-.7-1.4-1-2.7-1-1.2 0-2.1.3-2.7 1-.5.6-.8 1.6-.8 2.8v11.7c0 1.3.3 2.2.8 2.8.5.6 1.4.9 2.7.9 1.4 0 2.4-.4 2.8-1.1.4-.7.7-1.8.7-3.1v-1.6h5.3v1.2c0 3-.7 5.3-2.1 6.9-1.4 1.6-3.7 2.4-6.7 2.4-2.9 0-5.1-.8-6.6-2.4-1.5-1.6-2.2-3.8-2.2-6.8V65.6c0-3 .7-5.2 2.2-6.8 1.5-1.6 3.7-2.4 6.6-2.4 5.9 0 8.8 3.2 8.8 9.4z" style="fill:url(#SVGID_1_)"/>
  <linearGradient id="SVGID_00000165231716637914547100000004751487398324836022_" gradientUnits="userSpaceOnUse" x1="50.379" y1="91.129" x2="93.223" y2="48.285">
    <stop offset="0" style="stop-color:#155fff"/>
    <stop offset="1" style="stop-color:#8c2f7d"/>
  </linearGradient>
  <path style="fill:url(#SVGID_00000165231716637914547100000004751487398324836022_)" d="M79.5 65.1c0 2.8-.9 4.9-2.6 6.3-1.7 1.4-4.1 2.1-7 2.1h-2.5v11.2H62V56.8h7.9c2.9 0 5.3.7 7 2.1 1.7 1.3 2.6 3.4 2.6 6.2zm-5.3 0c0-1.3-.3-2.3-1-3s-1.6-1-2.8-1h-3V69h3c1.2 0 2.2-.3 2.8-1s1-1.5 1-2.9z"/>
  <linearGradient id="SVGID_00000015314203735523432460000000636490303193624202_" gradientUnits="userSpaceOnUse" x1="50.379" y1="91.129" x2="93.223" y2="48.285">
    <stop offset="0" style="stop-color:#155fff"/>
    <stop offset="1" style="stop-color:#8c2f7d"/>
  </linearGradient>
  <path style="fill:url(#SVGID_00000015314203735523432460000000636490303193624202_)" d="M92.6 80.4c2.5 0 3.8-1.3 3.8-3.9V56.8h5.3v19.8c0 2.7-.8 4.8-2.3 6.3-1.5 1.5-3.8 2.2-6.8 2.2s-5.2-.7-6.8-2.2c-1.5-1.5-2.3-3.6-2.3-6.3V56.8h5.3v19.7c.1 2.6 1.3 3.9 3.8 3.9z"/>
  <g>
    <path class="st3" d="M132.5 0H9L0 9v123.5l9 9h123.5l9-9V9l-9-9zm1.3 129.3-4.5 4.5H12.2l-4.5-4.5V12.2l4.5-4.5h117.1l4.5 4.5v117.1z"/>
    <path d="M129.4 134.2H12l-4.7-4.7V12.1L12 7.4h117.4l4.7 4.7v117.4l-4.7 4.7zm-117.1-.7h116.8l4.3-4.3V12.4L129.1 8H12.4L8 12.4v116.8l4.3 4.3z" style="fill:#fff"/>
    <path class="st3" d="M125.8 130.3H15.7l-4.4-4.4V15.7l4.4-4.4h110.1l4.4 4.4v110.1l-4.4 4.5zM16 129.6h109.6l4-4V16l-4-4H16l-4 4v109.6l4 4z"/>
    <path class="st3" d="m20.4 24.8-1.8-3 1.8-3.1h3.5l1.8 3.1-1.8 3zM121.2 24.8l-1.8-3 1.8-3.1h3.5l1.8 3.1-1.8 3z"/>
    <g>
      <path class="st3" d="m20.4 123.9-1.8-3.1 1.8-3h3.5l1.8 3-1.8 3.1zM121.2 123.9l-1.8-3.1 1.8-3h3.5l1.8 3-1.8 3.1z"/>
    </g>
  </g>
</svg>
