<?xml version="1.0" encoding="utf-8"?>
<!-- Generator: Adobe Illustrator 25.4.3, SVG Export Plug-In . SVG Version: 6.00 Build 0)  -->
<svg version="1.1" id="圖層_3" xmlns="http://www.w3.org/2000/svg" xmlns:xlink="http://www.w3.org/1999/xlink" x="0px" y="0px"
	 viewBox="0 0 190.7 190.7" style="enable-background:new 0 0 190.7 190.7;" xml:space="preserve">
<style type="text/css">
	.st0{fill:#FFFFFF;}
	.st1{fill:url(#SVGID_1_);}
	.st2{fill:url(#SVGID_00000134954858954463992900000008474455183732582814_);}
	.st3{fill:url(#SVGID_00000019653599891178817830000010218780856759967145_);}
</style>
<path class="st0" d="M26.8,35.8L15.5,47.2v86.1L0,149.2l5,5.8h180.7l5-5.8l-15.5-15.9V47.1l-11.6-11.3 M162,39.8l9.3,9v80.4H19.5
	V48.8l9-9H162z M66.4,149.2l6.2-9.8H118l6.2,9.8H66.4z"/>
<g>
	
		<linearGradient id="SVGID_1_" gradientUnits="userSpaceOnUse" x1="62.997" y1="766.773" x2="102.2535" y2="727.5164" gradientTransform="matrix(1 0 0 1 0 -670)">
		<stop  offset="0" style="stop-color:#155FFF"/>
		<stop  offset="1" style="stop-color:#8C2F7D"/>
	</linearGradient>
	<path class="st1" d="M79.6,79.5v11.1c0,2.2-0.4,4.1-1.2,5.7c0.8,0.7,1.7,1,2.8,1v5h-0.1c-2.2,0-4-1-5.6-2.9c-1.3,0.8-3,1.2-4.9,1.2
		c-3,0-5.2-0.9-6.6-2.5c-1.4-1.8-2.2-4.2-2.2-7.3V79.5c0-3.2,0.8-5.6,2.2-7.3c1.4-1.8,3.7-2.5,6.6-2.5c3,0,5.2,0.9,6.7,2.5
		S79.6,76.3,79.6,79.5z M70.7,95.4c0.8,0,1.6-0.2,2.1-0.5c-0.9-1.3-1.7-2.1-2.3-2.3v-5c0.8,0.1,1.6,0.4,2.2,0.9s1.2,1.1,1.7,1.9h0.1
		V78.7c0-1.4-0.3-2.4-0.8-3.1c-0.5-0.7-1.4-1.1-2.7-1.1s-2.1,0.4-2.7,1.1c-0.5,0.7-0.8,1.8-0.8,3.1v12.5c0,1.4,0.3,2.4,0.8,3.1
		C68.6,95,69.5,95.4,70.7,95.4z"/>
	
		<linearGradient id="SVGID_00000023973252178312335200000009687520266355649203_" gradientUnits="userSpaceOnUse" x1="75.1056" y1="775.1447" x2="115.1197" y2="735.1307" gradientTransform="matrix(1 0 0 1 0 -670)">
		<stop  offset="0" style="stop-color:#155FFF"/>
		<stop  offset="1" style="stop-color:#8C2F7D"/>
	</linearGradient>
	<path style="fill:url(#SVGID_00000023973252178312335200000009687520266355649203_);" d="M99.1,81.9v-12h5.4V100h-5.4V87h-7.6v13
		h-5.4V70h5.4v12L99.1,81.9L99.1,81.9z"/>
	
		<linearGradient id="SVGID_00000030460349629358207960000002648831026274627222_" gradientUnits="userSpaceOnUse" x1="88.6326" y1="783.9319" x2="128.1652" y2="744.3993" gradientTransform="matrix(1 0 0 1 0 -670)">
		<stop  offset="0" style="stop-color:#155FFF"/>
		<stop  offset="1" style="stop-color:#8C2F7D"/>
	</linearGradient>
	<path style="fill:url(#SVGID_00000030460349629358207960000002648831026274627222_);" d="M128.7,80.7v8.7c0,7.1-3.2,10.7-9.6,10.7
		h-7.6V70h7.6C125.6,70,128.7,73.6,128.7,80.7z M123.4,89.1v-8.3c0-2-0.4-3.5-1-4.4c-0.8-1-1.9-1.4-3.6-1.4H117v19.9h1.7
		c1.8,0,3.1-0.5,3.7-1.5C123,92.5,123.4,91.1,123.4,89.1z"/>
</g>
</svg>
